<svg xmlns="http://www.w3.org/2000/svg" version="1.1" xmlns:xlink="http://www.w3.org/1999/xlink" xmlns:svgjs="http://svgjs.dev/svgjs" width="100%" height="100%" viewBox="0 0 1000 600"><rect width="1000" height="600" x="0" y="0" fill="#234e70"/><g><rect width="333.3333333333333" height="333.3333333333333" y="313.42127246298764" fill="#fbf8be" transform="matrix(0.4292596033386951,0,0,0.4292596033386951,0,93.9176291580084)" x="291.1990051269531"/><path d="M418.1589863336399 555.0879228579871L399.9846446338131 555.0879228579871L441.7335472112434 426.79845203568004L445.18749450261316 407.06161037070973L466.5964852530879 405.0879262042127L515.7467034548821 555.0879228579871L496.0098617899117 555.0879228579871L481.3991165018157 510.6800291118039L432.55043338101416 510.6800291118039L418.1589863336399 555.0879228579871ZM460.48354679296517 446.53529370065036L456.9199503812344 420.87739953618893L453.3837662495939 446.53529370065036L437.402406956986 495.87739786307617L476.574555205934 495.87739786307617L460.48354679296517 446.53529370065036Z " fill="#234e70" transform="matrix(0.4292596033386951,0,0,0.4292596033386951,0,93.9176291580084)"/><path d="M783.9220095906295 537.0410899843206L785.754692425191 553.5352354953742L766.5115226622952 553.5352354953742L766.5115226622952 538.6955953210775L757.9080949111592 548.9535284089704Q756.3299513591758 550.1498630370869 754.3190910268097 551.2443819521723Q752.3082306944435 552.3389008672576 750.2464625055618 553.2043344280228Q748.1846943166802 554.0952219170457 746.1229261277985 554.5788465539439Q744.0611579389167 555.0879251190999 742.3302908173864 555.0879251190999L742.3302908173864 555.0879251190999Q735.4577301877807 555.0879251190999 729.1706099081046 552.9497951454448Q722.8834896284282 550.7862112435319 718.1745129007354 546.611767009253Q713.4655361730427 542.437322774974 710.6656040646849 536.2520182083289Q707.865671956327 530.0667136416837 707.865671956327 522.0232723122194L707.865671956327 522.0232723122194Q707.865671956327 513.4962063458568 711.3019522711298 507.20908606618053Q714.7382325859326 500.9474197147621 720.1090114483281 496.77297548048307Q725.454336382466 492.59853124620406 732.0469038012358 490.5367630573224Q738.6649251482634 488.47499486844066 744.9774993561975 488.47499486844066L744.9774993561975 488.47499486844066Q750.1955546490462 488.47499486844066 754.1918213855206 489.0349812901122Q758.1626341937372 489.5695137835261 760.9116584455795 490.3076777030022L760.9116584455795 490.3076777030022Q764.1188534060622 491.12220340725173 766.5115226622952 492.14036053756365L766.5115226622952 492.14036053756365L766.5115226622952 488.93316557708107Q766.5115226622952 483.5369327864277 765.8751744558502 479.20976498260194Q765.2388262494053 474.908051107034 763.253419845297 471.9299415008715Q761.2934673694465 468.9518318947091 757.5771938438079 467.39914227098336Q753.8609203181693 465.84645264725765 747.7265236080398 465.84645264725765L747.7265236080398 465.84645264725765Q742.7884615260268 465.84645264725765 738.2067544396231 466.5337087102182Q733.6250473532193 467.22096477317876 730.0360434688696 468.0354904774283L730.0360434688696 468.0354904774283Q725.8361453063328 469.0536476077403 722.2471414219833 470.1481665228256L722.2471414219833 470.1481665228256L715.6545740032134 457.87937310256666Q719.6762946679455 456.04669026800514 724.8179881760209 454.5703624290528L724.8179881760209 454.5703624290528Q729.2215177646201 453.29766601616285 735.2540987617184 452.2286010293353Q741.3121336870745 451.18498997076557 748.6428650253206 451.18498997076557L748.6428650253206 451.18498997076557Q759.1807913240492 451.18498997076557 766.0533519536548 454.01037600738124Q772.9259125832605 456.8612159722547 776.8712714632193 462.00290948033Q780.8166303431781 467.11914906014755 782.3693199669037 474.3226107571046Q783.9220095906295 481.5006185258038 783.9220095906295 490.3076777030022L783.9220095906295 490.3076777030022L783.9220095906295 537.0410899843206ZM766.5115226622952 528.4376622331847L766.5115226622952 504.68914716865845Q763.9406759082576 504.33279217304926 761.0134741586107 503.9509832491823L761.0134741586107 503.9509832491823Q758.5444431176043 503.6964439666043 755.3372481571216 503.41645075576855Q752.130053196639 503.13645754493274 748.6428650253206 503.13645754493274L748.6428650253206 503.13645754493274Q743.5011715172452 503.13645754493274 739.2503654981929 504.1546146752447Q734.9995594791404 505.1473178772988 731.8687263034312 507.38726356398513Q728.7633470559797 509.65266317892923 727.0070260061916 513.216213135021Q725.2761588846613 516.7797630911128 725.2761588846613 521.9214565991881L725.2761588846613 521.9214565991881Q725.2761588846613 526.0449929769516 726.6506710105824 529.4303654352389Q728.0251831365035 532.815737893526 730.4178523927367 535.3102228627903Q732.7850677207119 537.7792539037968 736.0431705377102 539.1028581732023Q739.3012733547084 540.4264624426078 743.0430008086048 540.4264624426078L743.0430008086048 540.4264624426078Q744.7993218583929 540.4264624426078 746.7592743342434 539.9173838774518Q748.7446807383517 539.4337592405536 750.7046332142022 538.5937796080464Q752.6645856900527 537.7792539037968 754.649992094161 536.6847349887114Q756.6099445700115 535.5647621453683 758.3662656197996 534.4702432302829L758.3662656197996 534.4702432302829Q762.4898019975631 531.8230346914719 766.5115226622952 528.4376622331847L766.5115226622952 528.4376622331847ZM833.4044461237902 405.0879258958921L833.4044461237902 519.0706166343148Q833.4044461237902 525.1286515596709 834.0917021867508 529.2012800809187Q834.7789582497113 533.2739086021663 836.1025625191169 535.7938474996885Q837.4261667885223 538.3137863972105 839.4115731926307 539.3828513840381Q841.3715256684811 540.4264624426078 843.9423724225189 540.4264624426078L843.9423724225189 540.4264624426078Q845.953232754885 540.4264624426078 847.6077380916419 540.1973770882877Q849.2622434283987 539.9682917339675 850.4585780565153 539.6119367383583L850.4585780565153 539.6119367383583Q851.8330901824364 539.2301278144913 852.9276090975218 538.7719571058509L852.9276090975218 538.7719571058509L859.2401833054558 549.8698698262511Q858.5020193859798 550.6080337457273 856.8984219057384 551.4734673064925Q855.294824425497 552.3389008672576 853.1057865953264 553.178880499765Q850.9167487651557 553.9934062040145 848.1168166567978 554.5533926256861Q845.31688454844 555.0879251190999 842.1096895879573 555.0879251190999L842.1096895879573 555.0879251190999Q833.8626168324306 555.0879251190999 828.7209233243552 552.0589076564219Q823.6046837445377 549.0553441220015 820.7538437796643 543.8118349008951Q817.9284577430486 538.5937796080464 816.9612084692523 531.6703111219251Q815.9939591954559 524.7722965640617 815.9939591954559 516.881578804144L815.9939591954559 516.881578804144L815.9939591954559 425.2474370760687L814.1612763608944 406.92060873045364L833.4044461237902 405.0879258958921ZM897.548345333443 455.02853313769316L897.548345333443 553.5352354953742L880.1378584051087 553.5352354953742L880.1378584051087 456.8612159722547L897.548345333443 455.02853313769316ZM879.577871983437 434.41085124887627L879.577871983437 416.08402290326114L898.1083317551145 416.08402290326114L898.1083317551145 434.41085124887627L879.577871983437 434.41085124887627ZM992.3896820220009 452.7376795944913L1008.1456636135783 509.550847465898L1011.9892067805058 535.2084071497591L1015.6545724496289 509.550847465898L1031.3341922564327 452.7376795944913L1046.1738324307296 451.18498997076557L1017.8690642080574 553.5352354953742L1003.9457654510416 553.5352354953742L988.2661456442374 496.72206762396746L984.778957472919 471.06450794010635L981.0372300190227 496.72206762396746L965.3576102122187 553.5352354953742L951.4343114552028 553.5352354953742L923.6640757259444 452.7376795944913L939.4200573175218 450.9049967599298L955.5578478329662 509.550847465898L959.503206712925 535.2084071497591L963.168572382048 509.550847465898L978.8227382605942 452.7376795944913L992.3896820220009 452.7376795944913ZM1136.7134552437196 537.0410899843206L1138.546138078281 553.5352354953742L1119.3029683153852 553.5352354953742L1119.3029683153852 538.6955953210775L1110.6995405642492 548.9535284089704Q1109.1213970122658 550.1498630370869 1107.1105366798997 551.2443819521723Q1105.0996763475337 552.3389008672576 1103.0379081586518 553.2043344280228Q1100.9761399697702 554.0952219170457 1098.9143717808884 554.5788465539439Q1096.8526035920067 555.0879251190999 1095.1217364704764 555.0879251190999L1095.1217364704764 555.0879251190999Q1088.249175840871 555.0879251190999 1081.9620555611946 552.9497951454448Q1075.6749352815182 550.7862112435319 1070.9659585538254 546.611767009253Q1066.2569818261327 542.437322774974 1063.457049717775 536.2520182083289Q1060.6571176094171 530.0667136416837 1060.6571176094171 522.0232723122194L1060.6571176094171 522.0232723122194Q1060.6571176094171 513.4962063458568 1064.09339792422 507.20908606618053Q1067.5296782390226 500.9474197147621 1072.9004571014182 496.77297548048307Q1078.245782035556 492.59853124620406 1084.838349454326 490.5367630573224Q1091.4563708013534 488.47499486844066 1097.7689450092876 488.47499486844066L1097.7689450092876 488.47499486844066Q1102.9870003021363 488.47499486844066 1106.9832670386106 489.0349812901122Q1110.9540798468272 489.5695137835261 1113.7031040986694 490.3076777030022L1113.7031040986694 490.3076777030022Q1116.910299059152 491.12220340725173 1119.3029683153852 492.14036053756365L1119.3029683153852 492.14036053756365L1119.3029683153852 488.93316557708107Q1119.3029683153852 483.5369327864277 1118.6666201089402 479.20976498260194Q1118.0302719024953 474.908051107034 1116.044865498387 471.9299415008715Q1114.0849130225365 468.9518318947091 1110.368639496898 467.39914227098336Q1106.6523659712593 465.84645264725765 1100.5179692611298 465.84645264725765L1100.5179692611298 465.84645264725765Q1095.5799071791168 465.84645264725765 1090.998200092713 466.5337087102182Q1086.4164930063093 467.22096477317876 1082.8274891219598 468.0354904774283L1082.8274891219598 468.0354904774283Q1078.6275909594228 469.0536476077403 1075.0385870750733 470.1481665228256L1075.0385870750733 470.1481665228256L1068.4460196563034 457.87937310256666Q1072.4677403210355 456.04669026800514 1077.609433829111 454.5703624290528L1077.609433829111 454.5703624290528Q1082.0129634177101 453.29766601616285 1088.0455444148083 452.2286010293353Q1094.1035793401645 451.18498997076557 1101.4343106784104 451.18498997076557L1101.4343106784104 451.18498997076557Q1111.9722369771393 451.18498997076557 1118.8447976067448 454.01037600738124Q1125.7173582363505 456.8612159722547 1129.6627171163093 462.00290948033Q1133.608075996268 467.11914906014755 1135.1607656199938 474.3226107571046Q1136.7134552437196 481.5006185258038 1136.7134552437196 490.3076777030022L1136.7134552437196 490.3076777030022L1136.7134552437196 537.0410899843206ZM1119.3029683153852 528.4376622331847L1119.3029683153852 504.68914716865845Q1116.7321215613476 504.33279217304926 1113.8049198117008 503.9509832491823L1113.8049198117008 503.9509832491823Q1111.3358887706943 503.6964439666043 1108.1286938102116 503.41645075576855Q1104.921498849729 503.13645754493274 1101.4343106784104 503.13645754493274L1101.4343106784104 503.13645754493274Q1096.2926171703352 503.13645754493274 1092.0418111512827 504.1546146752447Q1087.7910051322306 505.1473178772988 1084.6601719565213 507.38726356398513Q1081.5547927090697 509.65266317892923 1079.7984716592816 513.216213135021Q1078.0676045377513 516.7797630911128 1078.0676045377513 521.9214565991881L1078.0676045377513 521.9214565991881Q1078.0676045377513 526.0449929769516 1079.4421166636726 529.4303654352389Q1080.8166287895936 532.815737893526 1083.2092980458267 535.3102228627903Q1085.5765133738018 537.7792539037968 1088.8346161908003 539.1028581732023Q1092.0927190077985 540.4264624426078 1095.8344464616948 540.4264624426078L1095.8344464616948 540.4264624426078Q1097.590767511483 540.4264624426078 1099.5507199873334 539.9173838774518Q1101.5361263914417 539.4337592405536 1103.4960788672922 538.5937796080464Q1105.4560313431427 537.7792539037968 1107.441437747251 536.6847349887114Q1109.4013902231015 535.5647621453683 1111.1577112728896 534.4702432302829L1111.1577112728896 534.4702432302829Q1115.281247650653 531.8230346914719 1119.3029683153852 528.4376622331847L1119.3029683153852 528.4376622331847ZM1186.1958917768802 405.0879258958921L1186.1958917768802 519.0706166343148Q1186.1958917768802 525.1286515596709 1186.8831478398408 529.2012800809187Q1187.5704039028012 533.2739086021663 1188.894008172207 535.7938474996885Q1190.2176124416123 538.3137863972105 1192.2030188457206 539.3828513840381Q1194.1629713215711 540.4264624426078 1196.733818075609 540.4264624426078L1196.733818075609 540.4264624426078Q1198.744678407975 540.4264624426078 1200.399183744732 540.1973770882877Q1202.0536890814888 539.9682917339675 1203.2500237096053 539.6119367383583L1203.2500237096053 539.6119367383583Q1204.6245358355263 539.2301278144913 1205.7190547506118 538.7719571058509L1205.7190547506118 538.7719571058509L1212.0316289585458 549.8698698262511Q1211.2934650390698 550.6080337457273 1209.6898675588284 551.4734673064925Q1208.0862700785872 552.3389008672576 1205.8972322484165 553.178880499765Q1203.7081944182457 553.9934062040145 1200.908262309888 554.5533926256861Q1198.10833020153 555.0879251190999 1194.9011352410473 555.0879251190999L1194.9011352410473 555.0879251190999Q1186.6540624855206 555.0879251190999 1181.5123689774452 552.0589076564219Q1176.3961293976276 549.0553441220015 1173.5452894327543 543.8118349008951Q1170.7199033961388 538.5937796080464 1169.7526541223422 531.6703111219251Q1168.785404848546 524.7722965640617 1168.785404848546 516.881578804144L1168.785404848546 516.881578804144L1168.785404848546 425.2474370760687L1166.9527220139844 406.92060873045364L1186.1958917768802 405.0879258958921ZM1250.339790986533 455.02853313769316L1250.339790986533 553.5352354953742L1232.9293040581988 553.5352354953742L1232.9293040581988 456.8612159722547L1250.339790986533 455.02853313769316ZM1232.369317636527 434.41085124887627L1232.369317636527 416.08402290326114L1250.8997774082045 416.08402290326114L1250.8997774082045 434.41085124887627L1232.369317636527 434.41085124887627ZM1352.6136747263681 462.7156194715484L1343.526622338334 473.0753682724725Q1339.9630723822422 469.86817331198984 1335.050464228487 467.85731297962377Q1330.1633100029896 465.84645264725765 1324.9198007818832 465.84645264725765L1324.9198007818832 465.84645264725765Q1317.232714448028 465.84645264725765 1311.8364816573746 468.72274654038887Q1306.4147949384635 471.6244943617779 1303.080330336692 476.56255644379087Q1299.7204118066625 481.5006185258038 1298.1677221829368 488.0677320163159Q1296.615032559211 494.6093915785702 1296.615032559211 501.8637611320428L1296.615032559211 501.8637611320428Q1296.615032559211 509.3726699680934 1298.0404525416477 516.1943227411834Q1299.4658725240845 523.0159755142736 1302.8512449823716 528.2340308071223Q1306.2366174406588 533.4775400282288 1311.8619355856324 536.5320114191646Q1317.5127076588635 539.6119367383583 1325.937957912195 539.6119367383583L1325.937957912195 539.6119367383583Q1332.9886960396054 539.6119367383583 1337.9013041933604 537.9574314016013Q1342.788458418858 536.3029260648444 1345.4611208859267 534.4702432302829L1345.4611208859267 534.4702432302829L1352.0536883046964 547.4008387852447Q1346.9119947966212 550.8880269565631 1340.090342023531 552.9752490737026Q1333.268689250441 555.0879251190999 1324.6652614993052 555.0879251190999L1324.6652614993052 555.0879251190999Q1313.2109937832956 555.0879251190999 1304.582112103902 550.5571258892116Q1295.9786843527659 546.0263266593236 1290.2515504947614 538.4665099667574Q1284.5244166367565 530.9066932741912 1281.6226688153677 521.0560230384231Q1278.7463749222363 511.20535280265494 1278.7463749222363 500.66742650392627L1278.7463749222363 500.66742650392627Q1278.7463749222363 491.12220340725173 1281.546307030594 482.18787458876443Q1284.3462391389521 473.25354577027707 1290.0733729969568 466.3809851406714Q1295.8005068549614 459.50842451106575 1304.5312042473865 455.3594342050446Q1313.2873555680692 451.18498997076557 1325.1234322079456 451.18498997076557L1325.1234322079456 451.18498997076557Q1333.548682461277 451.18498997076557 1340.1921577365622 453.78129065306103Q1346.835633011848 456.40304526361433 1352.6136747263681 462.7156194715484L1352.6136747263681 462.7156194715484ZM1416.095771801318 555.0879251190999L1416.095771801318 555.0879251190999Q1405.9396544264564 555.0879251190999 1397.539858101383 551.1171123108833Q1389.165515704567 547.1208455744089 1383.1074807792108 540.1210153035142Q1377.0748997821127 533.0957311043618 1373.7149812520831 523.5250540794295Q1370.3805166503116 513.9543770544972 1370.3805166503116 502.856464334097L1370.3805166503116 502.856464334097Q1370.3805166503116 491.7840055419545 1373.5877116107943 482.2896903017956Q1376.794906571277 472.79537506163666 1382.751125783602 465.89736050377326Q1388.7073449959269 458.97389201765196 1397.1835031057738 455.07944099420877Q1405.6596612156206 451.18498997076557 1416.095771801318 451.18498997076557L1416.095771801318 451.18498997076557Q1426.2773431044377 451.18498997076557 1434.702593357769 455.07944099420877Q1443.1278436111004 458.97389201765196 1449.1858785364564 465.89736050377326Q1455.2439134618123 472.79537506163666 1458.6292859200998 482.2896903017956Q1462.014658378387 491.7840055419545 1462.014658378387 502.856464334097L1462.014658378387 502.856464334097Q1462.014658378387 513.9543770544972 1458.7565555613887 523.5250540794295Q1455.4984527443905 533.0957311043618 1449.5422335320657 540.1210153035142Q1443.5860143197408 547.1208455744089 1435.0844022816361 551.1171123108833Q1426.5573363152732 555.0879251190999 1416.095771801318 555.0879251190999ZM1444.6041714500527 505.3254953751034L1444.6041714500527 505.3254953751034Q1444.6041714500527 497.918402252084 1443.0005739698113 490.7658484116426Q1441.3969764895699 483.6132945712011 1437.9097883182515 477.98797642622765Q1434.422600146933 472.3372043529963 1428.9245516432486 468.8754701099357Q1423.4265031395641 465.38828193861724 1415.7394168057087 465.38828193861724L1415.7394168057087 465.38828193861724Q1408.408685467463 465.38828193861724 1403.0888144615828 468.4172994012953Q1397.768943455703 471.42086293571555 1394.3835709974157 476.4607407307597Q1390.9981985391285 481.5006185258038 1389.3946010588872 487.9150084467691Q1387.791003578646 494.32939836773437 1387.791003578646 501.1255972125666L1387.791003578646 501.1255972125666Q1387.791003578646 508.53269033558604 1389.3946010588872 515.6852441760275Q1390.9981985391285 522.8377980164689 1394.4344788539313 528.4376622331847Q1397.8707591687341 534.0120725216425 1403.317899815903 537.4483528364453Q1408.765040463072 540.8846331512482 1416.4775807251851 540.8846331512482L1416.4775807251851 540.8846331512482Q1423.7064963504 540.8846331512482 1429.0263673562797 537.8556156885702Q1434.3462383621597 534.8520521541499 1437.8334265334781 529.8376282873636Q1441.2951607765388 524.848658348835 1442.9496661132957 518.4342684278697Q1444.6041714500527 512.0198785069044 1444.6041714500527 505.3254953751034ZM1506.9153878251439 476.2062014481817L1506.9153878251439 553.5352354953742L1489.5049008968097 553.5352354953742L1489.5049008968097 452.7376795944913L1506.9153878251439 450.9049967599298L1506.9153878251439 467.6791354818192L1512.5152520418596 457.87937310256666Q1514.1443034503588 456.75940025922347 1516.6387884196229 455.5885195593648Q1519.1078194606296 454.3921849312482 1522.2131987080809 453.4249356574519Q1525.34403188379 452.4576863836555 1528.907581839882 451.8213381772106Q1532.4711317959739 451.18498997076557 1536.2383131781278 451.18498997076557L1536.2383131781278 451.18498997076557Q1546.4962462660208 451.18498997076557 1552.910636186986 456.1739599092941Q1559.3250261079513 461.1629298478227 1561.259524655544 468.9518318947091L1561.259524655544 468.9518318947091L1568.208447069923 458.23572809817585Q1571.4156420304057 455.66488134413817 1577.295499457957 453.4249356574519Q1583.149902957251 451.18498997076557 1590.7606275063329 451.18498997076557L1590.7606275063329 451.18498997076557Q1597.7350038489697 451.18498997076557 1602.6730659309826 453.52675137048305Q1607.6111280129956 455.8430588419427 1610.7928690452202 460.2465884305419Q1613.9491561491875 464.6501180191411 1615.400030059882 470.88633044230176Q1616.8763578988342 477.1225428654625 1616.8763578988342 484.80962919931767L1616.8763578988342 484.80962919931767L1616.8763578988342 553.5352354953742L1599.4658709705 553.5352354953742L1599.4658709705 485.72597061659843Q1599.4658709705 480.7879085345855 1598.7786149075393 477.0716350089468Q1598.091358844579 473.35536148330823 1596.3859456513062 470.8354225857862Q1594.7059863862917 468.3154836882641 1591.855146421418 467.06824120363194Q1589.0297603848023 465.84645264725765 1584.804408294008 465.84645264725765L1584.804408294008 465.84645264725765Q1582.1571997551969 465.84645264725765 1579.255451933808 466.7627940645384Q1576.3791580406767 467.6791354818192 1573.4519562910298 469.1809172490293Q1570.4993006131251 470.7081529444972 1567.7248224330249 472.6681054203477Q1564.924890324667 474.6280578961982 1562.4558592836604 476.6643721568221L1562.4558592836604 476.6643721568221Q1562.7103985662386 479.31158069563315 1562.7613064227542 481.09335567367907Q1562.8122142792697 482.875130651725 1562.8122142792697 485.72597061659843L1562.8122142792697 485.72597061659843L1562.8122142792697 553.5352354953742L1545.4017273509355 553.5352354953742L1545.4017273509355 485.72597061659843Q1545.4017273509355 475.8243925243147 1542.0927166774215 470.8354225857862Q1538.8091599321658 465.84645264725765 1530.2820939658031 465.84645264725765L1530.2820939658031 465.84645264725765Q1527.533069713961 465.84645264725765 1524.4276904665094 466.6609783515072Q1521.2968572908 467.5009579840146 1518.2423858998643 468.9518318947091Q1515.1624605806708 470.4281597336614 1512.2352588310239 472.31175042473853Q1509.308057081377 474.16988718755783 1506.9153878251439 476.2062014481817L1506.9153878251439 476.2062014481817ZM1644.0102454216476 539.7901142361629L1644.0102454216476 539.7901142361629Q1644.0102454216476 536.6847349887114 1645.1811261215064 533.9357107368692Q1646.377460749623 531.1866864850269 1648.4392289385048 529.1249182961452Q1650.5009971273864 527.0631501072635 1653.199113522713 525.8668154791469Q1655.9226838462976 524.6704808510304 1659.0280630937489 524.6704808510304L1659.0280630937489 524.6704808510304Q1662.1334423412004 524.6704808510304 1664.8824665930426 525.8668154791469Q1667.6314908448849 527.0631501072635 1669.6932590337665 529.1249182961452Q1671.7550272226483 531.1866864850269 1672.9513618507647 533.9357107368692Q1674.1476964788815 536.6847349887114 1674.1476964788815 539.7901142361629L1674.1476964788815 539.7901142361629Q1674.1476964788815 542.8954934836142 1672.9513618507647 545.6954255919721Q1671.7550272226483 548.49535770033 1669.7441668902823 550.5571258892116Q1667.7333065579162 552.6188940780934 1665.0351901625893 553.8661365627256Q1662.3370737672628 555.0879251190999 1659.2062405915533 555.0879251190999L1659.2062405915533 555.0879251190999Q1656.100861344102 555.0879251190999 1653.3009292357442 553.8661365627256Q1650.5009971273864 552.6188940780934 1648.4392289385048 550.5571258892116Q1646.377460749623 548.49535770033 1645.1811261215064 545.6954255919721Q1644.0102454216476 542.8954934836142 1644.0102454216476 539.7901142361629ZM1774.130726675515 462.7156194715484L1765.0436742874806 473.0753682724725Q1761.4801243313884 469.86817331198984 1756.5675161776337 467.85731297962377Q1751.6803619521363 465.84645264725765 1746.4368527310296 465.84645264725765L1746.4368527310296 465.84645264725765Q1738.7497663971742 465.84645264725765 1733.3535336065213 468.72274654038887Q1727.9318468876102 471.6244943617779 1724.5973822858384 476.56255644379087Q1721.237463755809 481.5006185258038 1719.6847741320832 488.0677320163159Q1718.1320845083576 494.6093915785702 1718.1320845083576 501.8637611320428L1718.1320845083576 501.8637611320428Q1718.1320845083576 509.3726699680934 1719.5575044907941 516.1943227411834Q1720.982924473231 523.0159755142736 1724.368296931518 528.2340308071223Q1727.7536693898055 533.4775400282288 1733.378987534779 536.5320114191646Q1739.0297596080102 539.6119367383583 1747.4550098613415 539.6119367383583L1747.4550098613415 539.6119367383583Q1754.505747988752 539.6119367383583 1759.4183561425068 537.9574314016013Q1764.3055103680042 536.3029260648444 1766.9781728350733 534.4702432302829L1766.9781728350733 534.4702432302829L1773.570740253843 547.4008387852447Q1768.429046745768 550.8880269565631 1761.6073939726778 552.9752490737026Q1754.7857411995876 555.0879251190999 1746.1823134484519 555.0879251190999L1746.1823134484519 555.0879251190999Q1734.728045732442 555.0879251190999 1726.0991640530485 550.5571258892116Q1717.4957363019125 546.0263266593236 1711.7686024439079 538.4665099667574Q1706.0414685859032 530.9066932741912 1703.1397207645139 521.0560230384231Q1700.2634268713828 511.20535280265494 1700.2634268713828 500.66742650392627L1700.2634268713828 500.66742650392627Q1700.2634268713828 491.12220340725173 1703.0633589797405 482.18787458876443Q1705.8632910880985 473.25354577027707 1711.5904249461034 466.3809851406714Q1717.3175588041079 459.50842451106575 1726.048256196533 455.3594342050446Q1734.8044075172159 451.18498997076557 1746.6404841570918 451.18498997076557L1746.6404841570918 451.18498997076557Q1755.0657344104231 451.18498997076557 1761.7092096857089 453.78129065306103Q1768.352684960994 456.40304526361433 1774.130726675515 462.7156194715484L1774.130726675515 462.7156194715484ZM1837.6128237504647 555.0879251190999L1837.6128237504647 555.0879251190999Q1827.4567063756028 555.0879251190999 1819.0569100505293 551.1171123108833Q1810.6825676537135 547.1208455744089 1804.6245327283575 540.1210153035142Q1798.5919517312589 533.0957311043618 1795.2320332012298 523.5250540794295Q1791.897568599458 513.9543770544972 1791.897568599458 502.856464334097L1791.897568599458 502.856464334097Q1791.897568599458 491.7840055419545 1795.104763559941 482.2896903017956Q1798.3119585204233 472.79537506163666 1804.2681777327482 465.89736050377326Q1810.224396945073 458.97389201765196 1818.70055505492 455.07944099420877Q1827.1767131647669 451.18498997076557 1837.6128237504647 451.18498997076557L1837.6128237504647 451.18498997076557Q1847.794395053584 451.18498997076557 1856.2196453069153 455.07944099420877Q1864.6448955602466 458.97389201765196 1870.702930485603 465.89736050377326Q1876.760965410959 472.79537506163666 1880.1463378692463 482.2896903017956Q1883.5317103275336 491.7840055419545 1883.5317103275336 502.856464334097L1883.5317103275336 502.856464334097Q1883.5317103275336 513.9543770544972 1880.2736075105352 523.5250540794295Q1877.0155046935367 533.0957311043618 1871.0592854812119 540.1210153035142Q1865.1030662688875 547.1208455744089 1856.6014542307823 551.1171123108833Q1848.07438826442 555.0879251190999 1837.6128237504647 555.0879251190999ZM1866.121223399199 505.3254953751034L1866.121223399199 505.3254953751034Q1866.121223399199 497.918402252084 1864.5176259189577 490.7658484116426Q1862.9140284387165 483.6132945712011 1859.4268402673981 477.98797642622765Q1855.9396520960797 472.3372043529963 1850.4416035923948 468.8754701099357Q1844.9435550887108 465.38828193861724 1837.2564687548554 465.38828193861724L1837.2564687548554 465.38828193861724Q1829.9257374166093 465.38828193861724 1824.6058664107297 468.4172994012953Q1819.2859954048497 471.42086293571555 1815.9006229465624 476.4607407307597Q1812.5152504882751 481.5006185258038 1810.911653008034 487.9150084467691Q1809.3080555277927 494.32939836773437 1809.3080555277927 501.1255972125666L1809.3080555277927 501.1255972125666Q1809.3080555277927 508.53269033558604 1810.911653008034 515.6852441760275Q1812.5152504882751 522.8377980164689 1815.951530803078 528.4376622331847Q1819.3878111178808 534.0120725216425 1824.8349517650497 537.4483528364453Q1830.2820924122186 540.8846331512482 1837.9946326743318 540.8846331512482L1837.9946326743318 540.8846331512482Q1845.2235482995463 540.8846331512482 1850.5434193054264 537.8556156885702Q1855.863290311306 534.8520521541499 1859.3504784826248 529.8376282873636Q1862.8122127256854 524.848658348835 1864.4667180624422 518.4342684278697Q1866.121223399199 512.0198785069044 1866.121223399199 505.3254953751034ZM1928.4324397742905 476.2062014481817L1928.4324397742905 553.5352354953742L1911.0219528459559 553.5352354953742L1911.0219528459559 452.7376795944913L1928.4324397742905 450.9049967599298L1928.4324397742905 467.6791354818192L1934.032303991006 457.87937310256666Q1935.661355399505 456.75940025922347 1938.1558403687693 455.5885195593648Q1940.6248714097758 454.3921849312482 1943.7302506572275 453.4249356574519Q1946.8610838329366 452.4576863836555 1950.4246337890283 451.8213381772106Q1953.98818374512 451.18498997076557 1957.7553651272744 451.18498997076557L1957.7553651272744 451.18498997076557Q1968.0132982151674 451.18498997076557 1974.4276881361327 456.1739599092941Q1980.842078057098 461.1629298478227 1982.7765766046907 468.9518318947091L1982.7765766046907 468.9518318947091L1989.7254990190697 458.23572809817585Q1992.9326939795521 455.66488134413817 1998.8125514071037 453.4249356574519Q2004.6669549063975 451.18498997076557 2012.277679455479 451.18498997076557L2012.277679455479 451.18498997076557Q2019.2520557981163 451.18498997076557 2024.1901178801293 453.52675137048305Q2029.1281799621422 455.8430588419427 2032.3099209943668 460.2465884305419Q2035.4662080983342 464.6501180191411 2036.9170820090283 470.88633044230176Q2038.393409847981 477.1225428654625 2038.393409847981 484.80962919931767L2038.393409847981 484.80962919931767L2038.393409847981 553.5352354953742L2020.9829229196464 553.5352354953742L2020.9829229196464 485.72597061659843Q2020.9829229196464 480.7879085345855 2020.295666856686 477.0716350089468Q2019.6084107937256 473.35536148330823 2017.9029976004529 470.8354225857862Q2016.2230383354379 468.3154836882641 2013.3721983705643 467.06824120363194Q2010.546812333949 465.84645264725765 2006.3214602431542 465.84645264725765L2006.3214602431542 465.84645264725765Q2003.6742517043433 465.84645264725765 2000.7725038829542 466.7627940645384Q1997.8962099898229 467.6791354818192 1994.969008240176 469.1809172490293Q1992.0163525622713 470.7081529444972 1989.2418743821715 472.6681054203477Q1986.4419422738135 474.6280578961982 1983.972911232807 476.6643721568221L1983.972911232807 476.6643721568221Q1984.2274505153848 479.31158069563315 1984.2783583719008 481.09335567367907Q1984.3292662284164 482.875130651725 1984.3292662284164 485.72597061659843L1984.3292662284164 485.72597061659843L1984.3292662284164 553.5352354953742L1966.9187793000822 553.5352354953742L1966.9187793000822 485.72597061659843Q1966.9187793000822 475.8243925243147 1963.6097686265682 470.8354225857862Q1960.326211881312 465.84645264725765 1951.7991459149496 465.84645264725765L1951.7991459149496 465.84645264725765Q1949.0501216631071 465.84645264725765 1945.9447424156558 466.6609783515072Q1942.8139092399467 467.5009579840146 1939.759437849011 468.9518318947091Q1936.679512529817 470.4281597336614 1933.75231078017 472.31175042473853Q1930.8251090305237 474.16988718755783 1928.4324397742905 476.2062014481817L1928.4324397742905 476.2062014481817Z " fill="#fbf8be" transform="matrix(0.4292596033386951,0,0,0.4292596033386951,0,93.9176291580084)"/></g></svg>